# Blender 5.1.2
# www.blender.org
mtllib paper_stack.mtl
o Cube
v 1.030021 -0.001785 -0.727298
v 1.030014 -0.012812 -0.727271
v 0.968368 0.002020 0.807569
v 0.968361 -0.009007 0.807596
v -0.968367 -0.000800 -0.807572
v -0.968374 -0.011826 -0.807545
v -1.030020 0.003005 0.727295
v -1.030027 -0.008021 0.727322
vn 0.0006 1.0000 -0.0025
vn -0.0401 0.0025 0.9992
vn -0.9992 0.0005 -0.0401
vn -0.0006 -1.0000 0.0025
vn 0.9992 -0.0005 0.0401
vn 0.0401 -0.0025 -0.9992
vt 0.625000 0.500000
vt 0.875000 0.500000
vt 0.875000 0.750000
vt 0.625000 0.750000
vt 0.375000 0.750000
vt 0.625000 1.000000
vt 0.375000 1.000000
vt 0.375000 0.000000
vt 0.625000 0.000000
vt 0.625000 0.250000
vt 0.375000 0.250000
vt 0.125000 0.500000
vt 0.375000 0.500000
vt 0.125000 0.750000
s 0
usemtl Material
f 1/1/1 5/2/1 7/3/1 3/4/1
f 4/5/2 3/4/2 7/6/2 8/7/2
f 8/8/3 7/9/3 5/10/3 6/11/3
f 6/12/4 2/13/4 4/5/4 8/14/4
f 2/13/5 1/1/5 3/4/5 4/5/5
f 6/11/6 5/10/6 1/1/6 2/13/6
o Cube.001
v 1.073571 0.015910 -0.861647
v 1.073571 0.004884 -0.861647
v 1.073571 0.015910 0.674462
v 1.073571 0.004884 0.674462
v -0.926429 0.015910 -0.861647
v -0.926429 0.004884 -0.861647
v -0.926429 0.015910 0.674462
v -0.926429 0.004884 0.674462
vn -0.0000 1.0000 -0.0000
vn -0.0000 -0.0000 1.0000
vn -1.0000 -0.0000 -0.0000
vn -0.0000 -1.0000 -0.0000
vn 1.0000 -0.0000 -0.0000
vn -0.0000 -0.0000 -1.0000
vt 0.625000 0.500000
vt 0.875000 0.500000
vt 0.875000 0.750000
vt 0.625000 0.750000
vt 0.375000 0.750000
vt 0.625000 1.000000
vt 0.375000 1.000000
vt 0.375000 0.000000
vt 0.625000 0.000000
vt 0.625000 0.250000
vt 0.375000 0.250000
vt 0.125000 0.500000
vt 0.375000 0.500000
vt 0.125000 0.750000
s 0
usemtl Material.001
f 9/15/7 13/16/7 15/17/7 11/18/7
f 12/19/8 11/18/8 15/20/8 16/21/8
f 16/22/9 15/23/9 13/24/9 14/25/9
f 14/26/10 10/27/10 12/19/10 16/28/10
f 10/27/11 9/15/11 11/18/11 12/19/11
f 14/25/12 13/24/12 9/15/12 10/27/12
o Cube.002
v 0.990989 0.039157 -0.919071
v 0.991001 0.028131 -0.919140
v 1.145949 0.029742 0.609174
v 1.145961 0.018715 0.609105
v -0.998807 0.035805 -0.717331
v -0.998796 0.024779 -0.717400
v -0.843847 0.026389 0.810913
v -0.843836 0.015363 0.810844
vn -0.0010 1.0000 0.0063
vn 0.1009 -0.0061 0.9949
vn -0.9949 -0.0017 0.1009
vn 0.0010 -1.0000 -0.0063
vn 0.9949 0.0017 -0.1009
vn -0.1009 0.0061 -0.9949
vt 0.625000 0.500000
vt 0.875000 0.500000
vt 0.875000 0.750000
vt 0.625000 0.750000
vt 0.375000 0.750000
vt 0.625000 1.000000
vt 0.375000 1.000000
vt 0.375000 0.000000
vt 0.625000 0.000000
vt 0.625000 0.250000
vt 0.375000 0.250000
vt 0.125000 0.500000
vt 0.375000 0.500000
vt 0.125000 0.750000
s 0
usemtl Material.002
f 17/29/13 21/30/13 23/31/13 19/32/13
f 20/33/14 19/32/14 23/34/14 24/35/14
f 24/36/15 23/37/15 21/38/15 22/39/15
f 22/40/16 18/41/16 20/33/16 24/42/16
f 18/41/17 17/29/17 19/32/17 20/33/17
f 22/39/18 21/38/18 17/29/18 18/41/18
