# Blender 5.1.2
# www.blender.org
mtllib signet_ring.mtl
o Ring
v 3.431196 -2.180536 0.001035
v 3.431196 1.939496 0.001035
v 3.142641 -2.142236 -1.667132
v 3.142641 1.871072 -1.806277
v 1.499024 0.430644 -4.526495
v 1.499024 -1.168262 -4.667272
v -0.001310 0.491922 -4.326496
v 5.002281 0.005443 0.001035
v 1.499024 -0.316003 -4.937475
v 2.998391 -0.147164 -4.532260
v -0.009927 -0.427082 -5.097642
v -0.009927 -1.098619 -4.885653
v -0.006712 0.336501 -4.607017
v -0.001310 -1.307495 -4.147660
v 3.142641 -0.133849 -2.124443
v 3.431196 -0.130517 0.001035
v 1.489771 -1.499705 -3.630702
v 1.489771 0.749092 -3.809539
v 1.489771 -0.283405 -3.720120
v -0.001310 -0.283405 -4.237078
v -2.572885 0.446577 -3.632299
v -2.182818 -0.499283 -4.455996
v -2.231593 -1.073071 -4.234286
v -2.135166 0.366641 -4.163109
v -2.572885 -1.176235 -3.453463
v -2.572885 -0.283405 -3.542881
v -3.612352 -0.499283 -3.417626
v -3.552545 -1.061187 -3.364429
v -3.426263 0.366641 -3.362725
v -3.995655 0.418875 -1.700987
v -3.995655 -1.129410 -1.680993
v -3.995655 -0.283405 -1.700987
v -4.745114 -0.439301 -1.693743
v -4.633936 -1.005312 -1.693743
v -4.633936 0.346647 -1.693743
v -4.315560 0.400515 -0.002573
v -4.315560 -1.096087 -0.002573
v -4.315560 -0.283405 -0.002573
v -5.008674 -0.430260 0.000000
v -4.894999 -0.979764 0.000000
v -4.894999 0.306658 0.000000
v 4.848011 -2.282711 0.001035
v 5.002281 -2.152710 0.001035
v 5.002281 1.911679 0.001035
v 4.850438 2.011743 0.001035
v 4.895281 -2.057194 -1.848059
v 5.002281 -2.129457 -1.611156
v 4.847424 -2.258810 -1.601148
v 5.002281 1.861362 -1.932493
v 4.887218 1.741170 -2.161466
v 4.850185 1.991016 -1.895623
v 2.939149 -1.100240 -4.510144
v 2.825409 -1.242257 -4.413079
v 2.827778 0.510006 -4.359340
v 2.909086 0.351107 -4.441281
v 4.882169 -0.050067 -3.152162
v 5.002281 -0.041174 -2.989554
v 3.431196 -2.180536 -0.001035
v 3.431196 1.939496 -0.001035
v 3.142641 -2.142236 1.667132
v 3.142641 1.871072 1.806277
v 1.499024 0.430644 4.526495
v 1.499024 -1.168262 4.667272
v -0.001310 0.491922 4.326496
v 5.002281 0.005443 -0.001035
v 1.499024 -0.316003 4.937475
v 2.998391 -0.147164 4.532260
v -0.009927 -0.427082 5.097642
v -0.009927 -1.098619 4.885653
v -0.006712 0.336501 4.607017
v -0.001310 -1.307495 4.147660
v 3.142641 -0.133849 2.124443
v 3.431196 -0.130517 -0.001035
v 1.489771 -1.499705 3.630702
v 1.489771 0.749092 3.809539
v 1.489771 -0.283405 3.720120
v -0.001310 -0.283405 4.237078
v -2.572885 0.446577 3.632299
v -2.182818 -0.499283 4.455996
v -2.231593 -1.073071 4.234286
v -2.135166 0.366641 4.163109
v -2.572885 -1.176235 3.453463
v -2.572885 -0.283405 3.542881
v -3.612352 -0.499283 3.417626
v -3.552545 -1.061187 3.364429
v -3.426263 0.366641 3.362725
v -3.995655 0.418875 1.700987
v -3.995655 -1.129410 1.680993
v -3.995655 -0.283405 1.700987
v -4.745114 -0.439301 1.693743
v -4.633936 -1.005312 1.693743
v -4.633936 0.346647 1.693743
v -4.315560 0.400515 0.002573
v -4.315560 -1.096087 0.002573
v -4.315560 -0.283405 0.002573
v 4.848011 -2.282711 -0.001035
v 5.002281 -2.152710 -0.001035
v 5.002281 1.911679 -0.001035
v 4.850438 2.011743 -0.001035
v 4.895281 -2.057194 1.848059
v 5.002281 -2.129457 1.611156
v 4.847424 -2.258810 1.601148
v 5.002281 1.861362 1.932493
v 4.887218 1.741170 2.161466
v 4.850185 1.991016 1.895623
v 2.939149 -1.100240 4.510144
v 2.825409 -1.242257 4.413079
v 2.827778 0.510006 4.359340
v 2.909086 0.351107 4.441281
v 4.882169 -0.050067 3.152162
v 5.002281 -0.041174 2.989554
vn 0.0336 0.5123 -0.8582
vn 0.1228 -0.2994 -0.9462
vn -0.0084 -0.9524 -0.3046
vn -0.1253 0.9061 -0.4041
vn -0.9893 -0.0114 0.1454
vn -0.9885 0.0170 0.1505
vn -0.7263 -0.0516 0.6854
vn -0.7197 0.1161 0.6845
vn -0.3223 0.0753 0.9436
vn -0.3333 0.0928 0.9382
vn -0.0203 0.9030 -0.4291
vn -0.0121 -0.9566 -0.2913
vn -0.2251 0.4279 -0.8753
vn -0.0797 0.9452 -0.3167
vn 0.2617 0.0897 0.9610
vn 0.2580 0.1140 0.9594
vn -0.0935 -0.9710 -0.2200
vn -0.2656 -0.3078 -0.9136
vn -0.5591 -0.2002 -0.8046
vn -0.5443 0.2352 -0.8053
vn -0.1796 0.9401 -0.2896
vn -0.1313 -0.9737 -0.1860
vn -0.1141 0.9910 -0.0703
vn -0.8303 -0.1512 -0.5364
vn 0.7854 0.0389 0.6178
vn -0.1494 -0.9856 -0.0793
vn -0.8110 0.1646 -0.5614
vn 0.7977 0.0376 0.6019
vn -0.1935 -0.9810 -0.0162
vn -0.9695 -0.1954 -0.1481
vn 0.9827 -0.0000 0.1851
vn -0.1352 0.9908 -0.0061
vn -0.9781 0.1444 -0.1502
vn 0.9825 0.0022 0.1861
vn 0.5511 -0.6955 -0.4611
vn 0.4419 0.6836 -0.5809
vn 0.7977 -0.3286 -0.5056
vn 0.6425 -0.7662 -0.0114
vn 0.6017 0.7985 -0.0149
vn 0.3207 0.6659 -0.6735
vn 0.3929 -0.7363 -0.5510
vn 0.7661 0.3108 -0.5626
vn 1.0000 -0.0000 -0.0000
vn -0.0696 -0.9975 -0.0128
vn -0.0619 0.9979 -0.0192
vn -0.0272 -0.9508 -0.3085
vn 0.6526 -0.3182 -0.6876
vn -0.0461 0.8838 -0.4655
vn 0.5596 0.3708 -0.7412
vn 0.1139 -0.6212 -0.7753
vn 0.0801 0.4889 -0.8686
vn 0.1980 -0.1630 -0.9665
vn 0.1425 0.3789 -0.9144
vn 0.0336 0.5123 0.8582
vn 0.1228 -0.2994 0.9462
vn -0.0084 -0.9524 0.3046
vn -0.1253 0.9061 0.4041
vn -0.9893 -0.0114 -0.1454
vn -0.9885 0.0170 -0.1505
vn -0.7263 -0.0516 -0.6854
vn -0.7197 0.1161 -0.6845
vn -0.3223 0.0753 -0.9436
vn -0.3333 0.0928 -0.9382
vn -0.0203 0.9030 0.4291
vn -0.0121 -0.9566 0.2913
vn -0.2251 0.4279 0.8753
vn -0.0797 0.9452 0.3167
vn 0.2617 0.0897 -0.9610
vn 0.2580 0.1140 -0.9594
vn -0.0935 -0.9710 0.2200
vn -0.2656 -0.3078 0.9136
vn -0.5591 -0.2002 0.8046
vn -0.5443 0.2352 0.8053
vn -0.1796 0.9401 0.2896
vn -0.1313 -0.9737 0.1860
vn -0.1141 0.9910 0.0703
vn -0.8303 -0.1512 0.5364
vn 0.7854 0.0389 -0.6178
vn -0.1494 -0.9856 0.0793
vn -0.8110 0.1646 0.5614
vn 0.7977 0.0376 -0.6019
vn -0.1935 -0.9810 0.0162
vn -0.9695 -0.1954 0.1481
vn 0.9827 -0.0000 -0.1851
vn -0.1352 0.9908 0.0061
vn -0.9781 0.1444 0.1502
vn 0.9825 0.0022 -0.1861
vn 0.5511 -0.6955 0.4611
vn 0.4419 0.6836 0.5809
vn 0.7977 -0.3286 0.5056
vn 0.6425 -0.7662 0.0114
vn 0.6017 0.7985 0.0149
vn 0.3207 0.6659 0.6735
vn 0.3929 -0.7363 0.5510
vn 0.7661 0.3108 0.5626
vn -0.0696 -0.9975 0.0128
vn -0.0619 0.9979 0.0192
vn -0.0272 -0.9508 0.3085
vn 0.6526 -0.3182 0.6876
vn -0.0461 0.8838 0.4655
vn 0.5596 0.3708 0.7412
vn 0.1139 -0.6212 0.7753
vn 0.0801 0.4889 0.8686
vn 0.1980 -0.1630 0.9665
vn 0.1425 0.3789 0.9144
vt 0.625000 0.250000
vt 0.500000 0.250000
vt 0.375000 0.250000
vt 0.125000 0.500000
vt 0.875000 0.500000
vt 0.500000 0.500000
vt 0.500000 0.750000
vt 0.875000 0.750000
vt 0.125000 0.750000
vt 0.000000 0.000000
vt 0.384164 0.500000
vt 0.382883 0.521349
vt 0.354182 0.500000
vt 0.616295 0.519325
vt 0.613910 0.500000
vt 0.645447 0.500000
vt 0.500000 0.513695
vt 0.350452 0.750000
vt 0.382672 0.750000
vt 0.649162 0.750000
vt 0.616242 0.750000
vt 0.593329 0.500000
vt 0.643965 0.490517
vt 0.355772 0.490386
vt 0.392161 0.500000
vt 0.500000 0.750000
vt 0.500000 0.500000
s 0
f 5/1/1 9/2/1 11/2/1 13/1/1
f 9/2/2 6/3/2 12/3/2 11/2/2
f 3/4/3 17/4/3 6/4/3
f 4/5/4 5/5/4 18/5/4
f 15/6/5 16/7/5 2/8/5 4/5/5
f 3/4/6 1/9/6 16/7/6 15/6/6
f 18/5/7 19/10/7 15/6/7 4/5/7
f 15/6/8 19/10/8 17/4/8 3/4/8
f 17/4/9 19/10/9 20/10/9 14/4/9
f 19/10/10 18/5/10 7/5/10 20/10/10
f 13/1/11 7/5/11 18/5/11 5/5/11
f 17/4/12 14/4/12 12/3/12 6/3/12
f 13/1/13 11/2/13 22/2/13 24/1/13
f 7/5/14 13/1/14 24/1/14 21/5/14
f 14/4/15 20/10/15 26/10/15 25/4/15
f 20/10/16 7/5/16 21/5/16 26/10/16
f 12/3/17 14/4/17 25/4/17 23/3/17
f 22/10/18 11/10/18 12/10/18 23/10/18
f 22/10/19 23/10/19 28/10/19 27/10/19
f 24/1/20 22/2/20 27/2/20 29/1/20
f 24/1/21 29/1/21 21/5/21
f 25/4/22 28/10/22 23/10/22
f 21/5/23 29/1/23 35/1/23 30/5/23
f 27/10/24 28/10/24 34/10/24 33/10/24
f 25/4/25 26/10/25 32/10/25 31/4/25
f 28/10/26 25/4/26 31/4/26 34/10/26
f 29/1/27 27/2/27 33/2/27 35/1/27
f 26/10/28 21/5/28 30/5/28 32/10/28
f 34/10/29 31/4/29 37/4/29 40/10/29
f 33/10/30 34/10/30 40/10/30 39/10/30
f 32/10/31 30/5/31 36/5/31 38/10/31
f 30/5/32 35/1/32 41/1/32 36/5/32
f 35/1/33 33/2/33 39/2/33 41/1/33
f 31/4/34 32/10/34 38/10/34 37/4/34
f 46/11/35 47/12/35 48/13/35
f 49/14/36 50/15/36 51/16/36
f 57/17/37 47/12/37 46/11/37 56/6/37
f 42/18/38 48/13/38 47/12/38 43/19/38
f 51/16/39 45/20/39 44/21/39 49/14/39
f 50/15/40 55/22/40 54/23/40 51/16/40
f 48/13/41 53/24/41 52/25/41 46/11/41
f 49/14/42 57/17/42 56/6/42 50/15/42
f 47/12/43 57/17/43 8/26/43 43/19/43
f 3/4/44 48/13/44 42/18/44 1/9/44
f 51/16/45 4/5/45 2/8/45 45/20/45
f 57/17/43 49/14/43 44/21/43 8/26/43
f 48/13/46 3/4/46 6/4/46 53/24/46
f 56/6/47 46/11/47 52/25/47 10/27/47
f 4/5/48 51/16/48 54/23/48 5/5/48
f 50/15/49 56/6/49 10/27/49 55/22/49
f 53/24/50 6/4/50 52/25/50
f 54/23/51 55/22/51 5/5/51
f 9/2/52 10/27/52 52/25/52 6/4/52
f 5/5/53 55/22/53 10/27/53 9/2/53
f 62/1/54 70/1/54 68/2/54 66/2/54
f 66/2/55 68/2/55 69/3/55 63/3/55
f 60/4/56 63/4/56 74/4/56
f 61/5/57 75/5/57 62/5/57
f 72/6/58 61/5/58 59/8/58 73/7/58
f 60/4/59 72/6/59 73/7/59 58/9/59
f 75/5/60 61/5/60 72/6/60 76/10/60
f 72/6/61 60/4/61 74/4/61 76/10/61
f 74/4/62 71/4/62 77/10/62 76/10/62
f 76/10/63 77/10/63 64/5/63 75/5/63
f 70/1/64 62/5/64 75/5/64 64/5/64
f 74/4/65 63/3/65 69/3/65 71/4/65
f 70/1/66 81/1/66 79/2/66 68/2/66
f 64/5/67 78/5/67 81/1/67 70/1/67
f 71/4/68 82/4/68 83/10/68 77/10/68
f 77/10/69 83/10/69 78/5/69 64/5/69
f 69/3/70 80/3/70 82/4/70 71/4/70
f 79/10/71 80/10/71 69/10/71 68/10/71
f 79/10/72 84/10/72 85/10/72 80/10/72
f 81/1/73 86/1/73 84/2/73 79/2/73
f 81/1/74 78/5/74 86/1/74
f 82/4/75 80/10/75 85/10/75
f 78/5/76 87/5/76 92/1/76 86/1/76
f 84/10/77 90/10/77 91/10/77 85/10/77
f 82/4/78 88/4/78 89/10/78 83/10/78
f 85/10/79 91/10/79 88/4/79 82/4/79
f 86/1/80 92/1/80 90/2/80 84/2/80
f 83/10/81 89/10/81 87/5/81 78/5/81
f 91/10/82 40/10/82 94/4/82 88/4/82
f 90/10/83 39/10/83 40/10/83 91/10/83
f 89/10/84 95/10/84 93/5/84 87/5/84
f 87/5/85 93/5/85 41/1/85 92/1/85
f 92/1/86 41/1/86 39/2/86 90/2/86
f 88/4/87 94/4/87 95/10/87 89/10/87
f 100/11/88 102/13/88 101/12/88
f 103/14/89 105/16/89 104/15/89
f 111/17/90 110/6/90 100/11/90 101/12/90
f 96/18/91 97/19/91 101/12/91 102/13/91
f 105/16/92 103/14/92 98/21/92 99/20/92
f 104/15/93 105/16/93 108/23/93 109/22/93
f 102/13/94 100/11/94 106/25/94 107/24/94
f 103/14/95 104/15/95 110/6/95 111/17/95
f 101/12/43 97/19/43 65/26/43 111/17/43
f 60/4/96 58/9/96 96/18/96 102/13/96
f 105/16/97 99/20/97 59/8/97 61/5/97
f 111/17/43 65/26/43 98/21/43 103/14/43
f 102/13/98 107/24/98 63/4/98 60/4/98
f 110/6/99 67/27/99 106/25/99 100/11/99
f 61/5/100 62/5/100 108/23/100 105/16/100
f 104/15/101 109/22/101 67/27/101 110/6/101
f 107/24/102 106/25/102 63/4/102
f 108/23/103 62/5/103 109/22/103
f 66/2/104 63/4/104 106/25/104 67/27/104
f 62/5/105 66/2/105 67/27/105 109/22/105
o Plane
v 5.020744 0.441815 -0.035774
v 5.020744 -0.161197 0.151112
v 5.020744 0.411569 -0.138852
v 5.020744 -0.134151 0.042271
v 5.020744 0.173437 0.082785
v 5.020744 0.155956 -0.026820
v 5.020744 -0.002194 0.129621
v 5.020744 0.006963 0.011660
v 5.020744 0.293769 -0.078430
v 5.020744 0.310730 0.028511
v 5.020744 0.680349 -1.151881
v 5.020744 0.650101 -1.153701
v 5.020744 0.761341 -0.511969
v 5.020744 0.855529 -0.503658
v 5.020744 0.707217 -0.243519
v 5.020744 0.637437 -0.319488
v 5.020744 0.795216 -0.653224
v 5.020744 0.878137 -0.640995
v 5.020744 0.776522 -0.892561
v 5.020744 0.842126 -0.907622
v 5.020744 0.730700 -1.016091
v 5.020744 0.772265 -1.037287
v 5.020744 0.882024 -0.777504
v 5.020744 0.804774 -0.769220
v 5.020744 0.709132 -0.417082
v 5.020744 0.791258 -0.368083
v 5.020744 0.575738 -0.133633
v 5.020744 0.527660 -0.219793
v 5.020744 -1.245885 0.198011
v 5.020744 -1.324444 0.055027
v 5.020744 -1.498507 0.376791
v 5.020744 -1.596233 0.280144
v 5.020744 -1.123707 0.161438
v 5.020744 -1.149631 0.011030
v 5.020744 -0.589797 0.038594
v 5.020744 -0.613962 0.166870
v 5.020744 -0.236338 0.052882
v 5.020744 -0.283559 0.166463
v 5.020744 -0.434981 0.169878
v 5.020744 -0.410135 0.060170
v 5.020744 -0.933036 0.136623
v 5.020744 -0.938353 0.000270
v 5.020744 -1.381990 0.274379
v 5.020744 -1.481953 0.152676
v 5.020744 -1.685191 0.835563
v 5.020744 -1.767361 0.850900
v 5.020744 -1.638611 0.579723
v 5.020744 -1.728760 0.529283
v 5.020744 -1.673939 0.701156
v 5.020744 -1.760098 0.683605
v 5.020744 -1.673488 0.403373
v 5.020744 -1.574752 0.474155
v 5.020744 -1.102649 1.027608
v 5.020744 -1.022194 1.122459
v 5.020744 -1.418722 1.162514
v 5.020744 -1.447699 1.290248
v 5.020744 -1.678451 1.129736
v 5.020744 -1.617056 1.060577
v 5.020744 -1.222792 1.110829
v 5.020744 -1.162123 1.236380
v 5.020744 -0.831595 0.638900
v 5.020744 -0.811092 0.696243
v 5.020744 -0.961310 0.885535
v 5.020744 -0.903196 0.964027
v 5.020744 -1.295096 1.285345
v 5.020744 -1.327206 1.153108
v 5.020744 -1.533724 1.134339
v 5.020744 -1.567267 1.237538
v 5.020744 -1.739623 1.004393
v 5.020744 -1.668708 0.957872
v 5.020744 -0.889661 0.776090
v 5.020744 -0.842802 0.818984
v 5.196692 0.441815 -0.035774
v 5.196692 -0.161197 0.151112
v 5.196692 0.411569 -0.138852
v 5.196692 -0.134151 0.042271
v 5.196692 0.173437 0.082785
v 5.196692 0.155956 -0.026820
v 5.196692 -0.002194 0.129621
v 5.196692 0.006963 0.011660
v 5.196692 0.293769 -0.078430
v 5.196692 0.310730 0.028511
v 5.196692 0.680349 -1.151881
v 5.196692 0.650101 -1.153701
v 5.196692 0.761341 -0.511969
v 5.196692 0.855529 -0.503658
v 5.196692 0.707217 -0.243519
v 5.196692 0.637437 -0.319488
v 5.196692 0.795216 -0.653224
v 5.196692 0.878137 -0.640995
v 5.196692 0.776522 -0.892561
v 5.196692 0.842126 -0.907622
v 5.196692 0.730700 -1.016091
v 5.196692 0.772265 -1.037287
v 5.196692 0.882024 -0.777504
v 5.196692 0.804774 -0.769220
v 5.196692 0.709132 -0.417082
v 5.196692 0.791258 -0.368083
v 5.196692 0.575738 -0.133633
v 5.196692 0.527660 -0.219793
v 5.196692 -1.245885 0.198011
v 5.196692 -1.324444 0.055027
v 5.196692 -1.498507 0.376791
v 5.196692 -1.596233 0.280144
v 5.196692 -1.123707 0.161438
v 5.196692 -1.149631 0.011030
v 5.196692 -0.589797 0.038594
v 5.196692 -0.613962 0.166870
v 5.196692 -0.236338 0.052882
v 5.196692 -0.283559 0.166463
v 5.196692 -0.434981 0.169878
v 5.196692 -0.410135 0.060170
v 5.196692 -0.933036 0.136622
v 5.196692 -0.938353 0.000270
v 5.196692 -1.381990 0.274379
v 5.196692 -1.481953 0.152676
v 5.196692 -1.685191 0.835563
v 5.196692 -1.767361 0.850900
v 5.196692 -1.638611 0.579723
v 5.196692 -1.728760 0.529283
v 5.196692 -1.673939 0.701156
v 5.196692 -1.760098 0.683605
v 5.196692 -1.673488 0.403373
v 5.196692 -1.574752 0.474155
v 5.196692 -1.102649 1.027608
v 5.196692 -1.022194 1.122459
v 5.196692 -1.418722 1.162514
v 5.196692 -1.447699 1.290248
v 5.196692 -1.678451 1.129736
v 5.196692 -1.617056 1.060577
v 5.196692 -1.222792 1.110829
v 5.196692 -1.162123 1.236380
v 5.196692 -0.831595 0.638900
v 5.196692 -0.811092 0.696243
v 5.196692 -0.961310 0.885535
v 5.196692 -0.903196 0.964027
v 5.196692 -1.295096 1.285345
v 5.196692 -1.327206 1.153108
v 5.196692 -1.533724 1.134339
v 5.196692 -1.567267 1.237538
v 5.196692 -1.739623 1.004393
v 5.196692 -1.668708 0.957872
v 5.196692 -0.889661 0.776090
v 5.196692 -0.842802 0.818984
vn -1.0000 -0.0000 -0.0000
vn 1.0000 -0.0000 -0.0000
vn -0.0000 -0.0168 0.9999
vn -0.0000 -0.8367 -0.5477
vn -0.0000 -0.5694 -0.8221
vn -0.0000 -0.9748 0.2233
vn -0.0000 0.9682 0.2501
vn -0.0000 -0.9841 0.1778
vn -0.0000 -0.0419 -0.9991
vn -0.0000 0.8804 -0.4743
vn -0.0000 0.2380 -0.9713
vn -0.0000 0.1245 0.9922
vn -0.0000 0.1339 0.9910
vn -0.0000 0.0321 0.9995
vn -0.0000 -0.9376 0.3478
vn -0.0000 0.0225 0.9997
vn -0.0000 0.7801 -0.6257
vn -0.0000 -0.4564 -0.8898
vn -0.0000 -0.6961 0.7179
vn -0.0000 0.1192 -0.9929
vn -0.0000 0.3676 0.9300
vn -0.0000 0.8934 -0.4493
vn -0.0000 0.9561 -0.2932
vn -0.0000 -0.2501 -0.9682
vn -0.0000 -0.0944 0.9955
vn -0.0000 -0.9966 -0.0821
vn -0.0000 -0.3753 -0.9269
vn -0.0000 -0.0509 -0.9987
vn -0.0000 0.2577 0.9662
vn -0.0000 0.6314 0.7755
vn -0.0000 -0.8059 -0.5920
vn -0.0000 -0.2120 -0.9773
vn -0.0000 0.4893 0.8721
vn -0.0000 0.9036 0.4284
vn -0.0000 0.9416 -0.3367
vn -0.0000 -0.7446 -0.6675
vn -0.0000 -0.3507 -0.9365
vn -0.0000 -0.9209 -0.3898
vn -0.0000 0.6413 0.7673
vn -0.0000 0.4403 0.8978
vn -0.0000 0.7996 0.6006
vn -0.0000 -0.5719 -0.8203
vn -0.0000 -0.7089 -0.7053
vn -0.0000 0.9965 0.0834
vn -0.0000 0.0600 -0.9982
vn -0.0000 0.9232 0.3844
vn -0.0000 -0.8473 -0.5312
vn -0.0000 -0.8629 0.5054
vn -0.0000 0.8556 0.5176
vn -0.0000 0.2868 0.9580
vn -0.0000 0.5900 0.8074
vn -0.0000 0.3456 0.9384
vn -0.0000 -0.9800 -0.1990
vn -0.0000 -0.1033 -0.9947
vn -0.0000 -0.8761 -0.4821
vn -0.0000 -0.1022 -0.9948
vn -0.0000 0.9867 0.1624
vn -0.0000 0.9602 0.2793
vn -0.0000 0.6602 0.7511
vn -0.0000 0.6628 -0.7488
vn -0.0000 -0.9991 -0.0434
vn -0.0000 -0.5269 -0.8499
vn -0.0000 0.8290 0.5593
vn -0.0000 -0.4034 0.9150
vn -0.0000 0.1291 0.9916
vn -0.0000 -0.6723 -0.7403
vn -0.0000 -0.9157 -0.4020
vn -0.0000 -0.2441 -0.9698
vn -0.0000 -0.8987 0.4386
vn -0.0000 0.7873 0.6165
vn -0.0000 -0.9724 -0.2332
vn -0.0000 0.9910 -0.1336
vn -0.0000 0.1093 -0.9940
vn -0.0000 0.9996 0.0285
vt 0.750000 0.000000
vt 0.750000 1.000000
vt 1.000000 1.000000
vt 1.000000 0.000000
vt 0.250000 0.000000
vt 0.250000 1.000000
vt 0.500000 1.000000
vt 0.500000 0.000000
vt 0.000000 0.000000
vt 0.000000 1.000000
vt 0.000000 1.000000
vt 0.000000 1.000000
vt 1.000000 1.000000
vt 1.000000 0.000000
vt 1.000000 1.000000
s 0
f 118/28/106 119/29/106 115/30/106 113/31/106
f 121/32/106 120/33/106 117/34/106 116/35/106
f 116/35/106 117/34/106 119/29/106 118/28/106
f 112/36/106 114/37/106 120/33/106 121/32/106
f 133/36/106 122/36/106 123/37/106 132/38/106
f 137/36/106 125/36/106 124/38/106 136/38/106
f 138/36/106 126/36/106 127/38/106 139/39/106
f 125/36/106 129/36/106 128/38/106 124/38/106
f 134/36/106 131/36/106 130/38/106 135/38/106
f 131/36/106 133/36/106 132/38/106 130/38/106
f 129/36/106 134/36/106 135/38/106 128/38/106
f 126/36/106 137/36/106 136/38/106 127/38/106
f 112/36/106 138/36/106 139/39/106 114/37/106
f 145/30/106 141/30/106 140/31/106 144/31/106
f 155/30/106 143/30/106 142/31/106 154/31/106
f 153/30/106 145/30/106 144/31/106 152/31/106
f 151/30/106 146/40/106 147/31/106 150/31/106
f 115/30/106 148/30/106 149/31/106 113/31/106
f 148/30/106 151/30/106 150/31/106 149/31/106
f 146/40/106 153/30/106 152/31/106 147/31/106
f 141/30/106 155/30/106 154/31/106 140/31/106
f 161/30/106 157/30/106 156/31/106 160/31/106
f 162/30/106 159/30/106 158/31/106 163/31/106
f 159/30/106 161/30/106 160/31/106 158/31/106
f 143/30/106 162/30/106 163/31/106 142/31/106
f 171/30/106 165/30/106 164/31/106 170/31/106
f 179/30/106 167/40/106 166/31/106 178/31/106
f 180/30/106 168/30/106 169/31/106 181/41/106
f 176/30/106 171/30/106 170/31/106 177/31/106
f 183/42/106 173/30/106 172/31/106 182/31/106
f 165/30/106 175/30/106 174/31/106 164/31/106
f 167/40/106 176/30/106 177/31/106 166/31/106
f 168/30/106 179/30/106 178/31/106 169/31/106
f 157/30/106 180/30/106 181/41/106 156/31/106
f 175/30/106 183/42/106 182/31/106 174/31/106
f 190/28/107 185/31/107 187/30/107 191/29/107
f 193/32/107 188/35/107 189/34/107 192/33/107
f 188/35/107 190/28/107 191/29/107 189/34/107
f 184/36/107 193/32/107 192/33/107 186/37/107
f 205/36/107 204/38/107 195/37/107 194/36/107
f 209/36/107 208/38/107 196/38/107 197/36/107
f 210/36/107 211/39/107 199/38/107 198/36/107
f 197/36/107 196/38/107 200/38/107 201/36/107
f 206/36/107 207/38/107 202/38/107 203/36/107
f 203/36/107 202/38/107 204/38/107 205/36/107
f 201/36/107 200/38/107 207/38/107 206/36/107
f 198/36/107 199/38/107 208/38/107 209/36/107
f 184/36/107 186/37/107 211/39/107 210/36/107
f 217/30/107 216/31/107 212/31/107 213/30/107
f 227/30/107 226/31/107 214/31/107 215/30/107
f 225/30/107 224/31/107 216/31/107 217/30/107
f 223/30/107 222/31/107 219/31/107 218/40/107
f 187/30/107 185/31/107 221/31/107 220/30/107
f 220/30/107 221/31/107 222/31/107 223/30/107
f 218/40/107 219/31/107 224/31/107 225/30/107
f 213/30/107 212/31/107 226/31/107 227/30/107
f 233/30/107 232/31/107 228/31/107 229/30/107
f 234/30/107 235/31/107 230/31/107 231/30/107
f 231/30/107 230/31/107 232/31/107 233/30/107
f 215/30/107 214/31/107 235/31/107 234/30/107
f 243/30/107 242/31/107 236/31/107 237/30/107
f 251/30/107 250/31/107 238/31/107 239/40/107
f 252/30/107 253/41/107 241/31/107 240/30/107
f 248/30/107 249/31/107 242/31/107 243/30/107
f 255/42/107 254/31/107 244/31/107 245/30/107
f 237/30/107 236/31/107 246/31/107 247/30/107
f 239/40/107 238/31/107 249/31/107 248/30/107
f 240/30/107 241/31/107 250/31/107 251/30/107
f 229/30/107 228/31/107 253/41/107 252/30/107
f 247/30/107 246/31/107 254/31/107 255/42/107
f 150/31/108 147/31/108 219/31/108 222/31/108
f 174/31/109 182/31/109 254/31/109 246/31/109
f 170/31/110 164/31/110 236/31/110 242/31/110
f 135/38/111 130/38/111 202/38/111 207/38/111
f 173/30/112 183/42/112 255/42/112 245/30/112
f 180/30/113 157/30/113 229/30/113 252/30/113
f 151/30/114 148/30/114 220/30/114 223/30/114
f 133/36/115 131/36/115 203/36/115 205/36/115
f 178/31/116 166/31/116 238/31/116 250/31/116
f 113/31/117 149/31/117 221/31/117 185/31/117
f 118/28/118 113/31/118 185/31/118 190/28/118
f 176/30/119 167/40/119 239/40/119 248/30/119
f 130/38/120 132/38/120 204/38/120 202/38/120
f 149/31/121 150/31/121 222/31/121 221/31/121
f 122/36/122 133/36/122 205/36/122 194/36/122
f 120/33/123 114/37/123 186/37/123 192/33/123
f 179/30/124 168/30/124 240/30/124 251/30/124
f 146/40/125 151/30/125 223/30/125 218/40/125
f 121/32/126 116/35/126 188/35/126 193/32/126
f 181/41/127 169/31/127 241/31/127 253/41/127
f 131/36/128 134/36/128 206/36/128 203/36/128
f 119/29/129 117/34/129 189/34/129 191/29/129
f 147/31/130 152/31/130 224/31/130 219/31/130
f 128/38/131 135/38/131 207/38/131 200/38/131
f 177/31/132 170/31/132 242/31/132 249/31/132
f 145/30/133 153/30/133 225/30/133 217/30/133
f 116/35/134 118/28/134 190/28/134 188/35/134
f 165/30/135 171/30/135 243/30/135 237/30/135
f 127/38/136 136/38/136 208/38/136 199/38/136
f 115/30/137 119/29/137 191/29/137 187/30/137
f 140/31/138 154/31/138 226/31/138 212/31/138
f 125/36/139 137/36/139 209/36/139 197/36/139
f 172/31/140 173/30/140 245/30/140 244/31/140
f 143/30/141 155/30/141 227/30/141 215/30/141
f 117/34/142 120/33/142 192/33/142 189/34/142
f 182/31/143 172/31/143 244/31/143 254/31/143
f 126/36/144 138/36/144 210/36/144 198/36/144
f 112/36/145 121/32/145 193/32/145 184/36/145
f 175/30/146 165/30/146 237/30/146 247/30/146
f 114/37/147 139/39/147 211/39/147 186/37/147
f 164/31/148 174/31/148 246/31/148 236/31/148
f 160/31/149 156/31/149 228/31/149 232/31/149
f 123/37/150 122/36/150 194/36/150 195/37/150
f 183/42/151 175/30/151 247/30/151 255/42/151
f 162/30/152 143/30/152 215/30/152 234/30/152
f 132/38/153 123/37/153 195/37/153 204/38/153
f 163/31/154 158/31/154 230/31/154 235/31/154
f 144/31/155 140/31/155 212/31/155 216/31/155
f 138/36/156 112/36/156 184/36/156 210/36/156
f 171/30/157 176/30/157 248/30/157 243/30/157
f 161/30/158 159/30/158 231/30/158 233/30/158
f 148/30/159 115/30/159 187/30/159 220/30/159
f 136/38/160 124/38/160 196/38/160 208/38/160
f 166/31/161 177/31/161 249/31/161 238/31/161
f 129/36/162 125/36/162 197/36/162 201/36/162
f 158/31/163 160/31/163 232/31/163 230/31/163
f 154/31/164 142/31/164 214/31/164 226/31/164
f 169/31/165 178/31/165 250/31/165 241/31/165
f 157/30/166 161/30/166 233/30/166 229/30/166
f 155/30/167 141/30/167 213/30/167 227/30/167
f 137/36/168 126/36/168 198/36/168 209/36/168
f 167/40/169 179/30/169 251/30/169 239/40/169
f 152/31/170 144/31/170 216/31/170 224/31/170
f 139/39/171 127/38/171 199/38/171 211/39/171
f 159/30/172 162/30/172 234/30/172 231/30/172
f 141/30/173 145/30/173 217/30/173 213/30/173
f 168/30/174 180/30/174 252/30/174 240/30/174
f 142/31/175 163/31/175 235/31/175 214/31/175
f 124/38/176 128/38/176 200/38/176 196/38/176
f 156/31/177 181/41/177 253/41/177 228/31/177
f 153/30/178 146/40/178 218/40/178 225/30/178
f 134/36/179 129/36/179 201/36/179 206/36/179
o Plane.001
v 5.004062 0.517393 0.078369
v 5.004062 -0.202955 0.306145
v 5.004062 0.476449 0.019939
v 5.004062 -0.201074 0.228900
v 5.004062 0.169712 0.232080
v 5.004062 0.157105 0.145697
v 5.004062 0.845133 -0.281202
v 5.004062 0.821765 -0.293918
v 5.004062 0.629675 -0.089388
v 5.004062 0.667600 -0.033982
v 5.004062 -0.202955 0.306145
v 5.004062 -0.201074 0.228900
v 5.004062 -0.565688 0.266751
v 5.004062 -0.559825 0.244143
v 5.004062 0.313028 0.091773
v 5.004062 0.344041 0.167404
v 5.004062 -0.364367 0.304765
v 5.004062 -0.374391 0.251315
v 5.004062 0.726848 -0.180494
v 5.004062 0.770379 -0.155884
v 5.004062 0.865363 -0.376257
v 5.004062 0.846446 -0.341110
v 5.004062 -0.019190 0.274174
v 5.004062 -0.024863 0.190258
v 5.180010 0.517393 0.078369
v 5.180010 0.476449 0.019939
v 5.180010 0.169712 0.232080
v 5.180010 0.157105 0.145697
v 5.180010 0.845133 -0.281202
v 5.180010 0.821765 -0.293918
v 5.180010 0.629675 -0.089388
v 5.180010 0.667600 -0.033982
v 5.180010 -0.202955 0.306145
v 5.180010 -0.201074 0.228900
v 5.180010 -0.565688 0.266751
v 5.180010 -0.559825 0.244143
v 5.180010 0.313028 0.091773
v 5.180010 0.344041 0.167404
v 5.180010 -0.364367 0.304765
v 5.180010 -0.374391 0.251315
v 5.180010 0.726848 -0.180494
v 5.180010 0.770379 -0.155884
v 5.180010 0.865363 -0.376257
v 5.180010 0.846446 -0.341110
v 5.180010 -0.019190 0.274174
v 5.180010 -0.024863 0.190258
vn 1.0000 -0.0000 -0.0000
vn -0.0000 -0.5808 -0.8140
vn -0.0000 -0.1855 0.9826
vn -0.0000 0.5990 0.8008
vn -0.0000 0.2175 0.9761
vn -0.0000 -0.9680 -0.2510
vn -0.0000 0.0386 -0.9993
vn -0.0000 -0.7669 -0.6418
vn -0.0000 0.9781 0.2082
vn -0.0000 -0.0085 1.0000
vn -0.0000 -0.6840 -0.7295
vn -0.0000 -0.4024 -0.9155
vn -0.0000 -0.1283 -0.9917
vn -0.0000 0.7645 0.6446
vn -0.0000 0.8588 0.5123
vn -0.0000 0.3478 0.9376
vn -0.0000 -0.3268 -0.9451
vn -0.0000 -0.2379 -0.9713
vn -0.0000 0.4569 0.8895
vn -0.0000 -0.2142 -0.9768
vn -0.0000 -0.8806 -0.4739
vn -0.0000 -0.8861 -0.4634
vn -0.0000 -0.1714 -0.9852
vn -1.0000 -0.0000 -0.0000
vt 0.754639 0.000000
vt 1.000000 0.000000
vt 1.000000 1.000000
vt 0.754639 1.000000
vt 0.000000 0.000000
vt 0.248752 0.000000
vt 0.500000 0.000000
vt 0.500000 1.000000
vt 0.248752 1.000000
vt 0.000000 1.000000
s 0
f 278/43/180 257/44/180 259/45/180 279/46/180
f 258/47/181 264/47/181 286/47/181 281/47/181
f 272/47/182 268/47/182 290/47/182 294/47/182
f 265/47/183 256/47/183 280/47/183 287/47/183
f 259/45/180 257/44/180 266/44/180 267/45/180
f 260/47/184 278/47/184 300/47/184 282/47/184
f 268/47/185 269/47/185 291/47/185 290/47/185
f 269/47/186 273/47/186 295/47/186 291/47/186
f 274/47/187 263/47/187 285/47/187 296/47/187
f 276/47/188 262/47/188 284/47/188 298/47/188
f 266/47/189 272/47/189 294/47/189 288/47/189
f 293/48/180 282/49/180 283/50/180 292/51/180
f 297/47/180 296/52/180 285/52/180 284/47/180
f 280/47/180 281/52/180 286/52/180 287/47/180
f 295/45/180 294/44/180 290/44/180 291/45/180
f 280/47/180 293/48/180 292/51/180 281/52/180
f 289/45/180 288/44/180 294/44/180 295/45/180
f 287/47/180 286/52/180 296/52/180 297/47/180
f 284/47/180 285/52/180 299/52/180 298/47/180
f 282/49/180 300/43/180 301/46/180 283/50/180
f 264/47/190 274/47/190 296/47/190 286/47/190
f 270/47/191 258/47/191 281/47/191 292/47/191
f 273/47/192 267/47/192 289/47/192 295/47/192
f 275/47/193 265/47/193 287/47/193 297/47/193
f 262/47/194 275/47/194 297/47/194 284/47/194
f 271/47/195 260/47/195 282/47/195 293/47/195
f 261/47/196 270/47/196 292/47/196 283/47/196
f 279/47/197 261/47/197 283/47/197 301/47/197
f 256/47/198 271/47/198 293/47/198 280/47/198
f 289/47/199 267/47/199 279/47/199 301/47/199
f 277/47/200 276/47/200 298/47/200 299/47/200
f 263/47/201 277/47/201 299/47/201 285/47/201
f 266/47/202 278/47/202 300/47/202 288/47/202
f 288/47/203 300/47/203 301/47/203 289/47/203
o Plane.002
v 5.020744 1.204908 -0.548083
v 5.020744 0.393169 -0.611980
v 5.020744 1.169354 -0.668585
v 5.020744 0.409261 -0.742975
v 5.020744 1.594199 -0.983045
v 5.020744 1.547732 -0.993778
v 5.020744 1.409418 -0.794859
v 5.020744 1.463754 -0.745392
v 5.020744 1.361845 -0.645605
v 5.020744 1.312966 -0.724650
v 5.020744 1.486361 -0.883247
v 5.020744 1.540381 -0.862582
v 5.020744 0.956817 -0.500843
v 5.020744 0.947394 -0.625073
v 5.020744 1.626630 -1.147800
v 5.020744 1.585668 -1.153061
v 5.020744 1.607535 -1.387759
v 5.020744 1.543664 -1.359808
v 5.020744 1.140007 -1.439957
v 5.020744 1.173251 -1.339473
v 5.020744 0.990985 -1.227351
v 5.020744 1.031215 -1.189795
v 5.020744 1.420278 -1.429201
v 5.020744 1.472146 -1.551370
v 5.020744 1.302169 -1.411796
v 5.020744 1.320059 -1.548480
v 5.020744 0.920467 -1.023006
v 5.020744 0.928161 -0.994217
v 5.020744 1.582046 -1.268203
v 5.020744 1.628124 -1.281007
v 5.020744 1.552036 -1.485223
v 5.020744 1.477899 -1.414546
v 5.020744 1.104952 -1.272875
v 5.020744 1.059669 -1.340708
v 5.020744 1.236416 -1.384707
v 5.020744 1.224511 -1.505179
v 5.020744 1.393960 -1.560474
v 5.020744 1.362888 -1.428525
v 5.020744 1.061144 -0.638605
v 5.020744 1.080110 -0.517353
v 5.020744 0.811489 -0.511694
v 5.020744 0.824412 -0.640771
v 5.020744 0.976177 -1.101178
v 5.020744 0.946875 -1.120085
v 5.020744 -0.102871 -0.553907
v 5.020744 -0.138455 -0.634335
v 5.020744 0.135751 -0.616226
v 5.020744 0.120073 -0.731672
v 5.020744 0.260988 -0.747648
v 5.020744 0.260781 -0.624427
v 5.020744 0.009130 -0.589908
v 5.020744 -0.026232 -0.689032
v 5.020744 -0.352883 -0.383172
v 5.020744 -0.395169 -0.418742
v 5.020744 -0.593787 0.033507
v 5.020744 -0.626104 0.027544
v 5.020744 -0.464056 0.710988
v 5.020744 -0.539644 0.803444
v 5.020744 -0.274596 0.787167
v 5.020744 -0.273799 0.924734
v 5.020744 0.167503 0.640672
v 5.020744 0.240270 0.704305
v 5.020744 0.410030 0.257933
v 5.020744 0.483626 0.260768
v 5.020744 -0.248397 -0.468984
v 5.020744 -0.276968 -0.534361
v 5.020744 -0.502370 -0.184750
v 5.020744 -0.537644 -0.205270
v 5.020744 -0.473497 -0.311225
v 5.020744 -0.437515 -0.287224
v 5.020744 -0.549977 -0.075236
v 5.020744 -0.586819 -0.090495
v 5.020744 -0.619782 0.398615
v 5.020744 -0.675120 0.402602
v 5.020744 -0.561192 0.589691
v 5.020744 -0.629414 0.647040
v 5.020744 -0.668372 0.247678
v 5.020744 -0.626571 0.248419
v 5.020744 -0.370206 0.751233
v 5.020744 -0.414494 0.890711
v 5.020744 -0.040363 0.759350
v 5.020744 0.007090 0.870304
v 5.020744 -0.662878 0.534226
v 5.020744 -0.595530 0.501768
v 5.020744 -0.147990 0.916309
v 5.020744 -0.162374 0.788092
v 5.020744 -0.654734 0.129907
v 5.020744 -0.621334 0.137957
v 5.020744 0.312906 0.474054
v 5.020744 0.391379 0.497646
v 5.020744 0.056668 0.721184
v 5.020744 0.136754 0.796511
v 5.020744 0.326475 0.604743
v 5.020744 0.237584 0.570417
v 5.020744 0.364158 0.375992
v 5.020744 0.442615 0.394644
v 5.020744 0.314204 -0.265634
v 5.020744 0.365113 -0.309594
v 5.020744 0.451475 -0.024641
v 5.020744 0.500189 -0.040476
v 5.020744 0.508373 0.110096
v 5.020744 0.451895 0.113669
v 5.020744 0.414109 -0.150172
v 5.020744 0.454545 -0.180801
v 5.020744 0.373749 -0.219078
v 5.020744 0.412598 -0.251032
v 5.020744 0.482173 -0.112933
v 5.020744 0.437341 -0.090967
v 5.020744 0.459537 0.044237
v 5.020744 0.509601 0.035047
v 5.020744 -0.007466 -0.168649
v 5.020744 -0.075032 -0.270259
v 5.020744 0.116501 -0.262374
v 5.020744 0.102949 -0.386819
v 5.020744 0.248240 -0.382068
v 5.020744 0.218071 -0.286304
v 5.020744 0.306914 -0.351151
v 5.020744 0.267898 -0.280281
v 5.020744 0.172339 -0.278661
v 5.020744 0.182546 -0.389151
v 5.020744 0.051698 -0.226142
v 5.020744 0.011238 -0.348416
v 5.020744 -0.150970 0.039760
v 5.020744 -0.225613 0.026580
v 5.020744 -0.094942 -0.070477
v 5.020744 -0.174146 -0.125567
v 5.020744 -0.209084 0.421938
v 5.020744 -0.232481 0.433934
v 5.020744 -0.206609 0.236249
v 5.020744 -0.252830 0.239702
v 5.020744 -0.248349 0.130382
v 5.020744 -0.188916 0.140062
v 5.020744 -0.214176 0.330380
v 5.020744 -0.246453 0.337589
v 5.196692 1.204908 -0.548083
v 5.196692 0.393169 -0.611980
v 5.196692 1.169354 -0.668585
v 5.196692 0.409261 -0.742975
v 5.196692 1.594199 -0.983045
v 5.196692 1.547732 -0.993778
v 5.196692 1.409418 -0.794859
v 5.196692 1.463754 -0.745392
v 5.196692 1.361845 -0.645605
v 5.196692 1.312966 -0.724650
v 5.196692 1.486360 -0.883247
v 5.196692 1.540381 -0.862582
v 5.196692 0.956817 -0.500843
v 5.196692 0.947394 -0.625073
v 5.196692 1.626630 -1.147800
v 5.196692 1.585668 -1.153061
v 5.196692 1.607535 -1.387759
v 5.196692 1.543664 -1.359808
v 5.196692 1.140007 -1.439957
v 5.196692 1.173251 -1.339473
v 5.196692 0.990985 -1.227351
v 5.196692 1.031215 -1.189795
v 5.196692 1.420278 -1.429201
v 5.196692 1.472146 -1.551370
v 5.196692 1.302169 -1.411796
v 5.196692 1.320059 -1.548480
v 5.196692 0.920467 -1.023006
v 5.196692 0.928161 -0.994217
v 5.196692 1.582046 -1.268203
v 5.196692 1.628124 -1.281007
v 5.196692 1.552036 -1.485223
v 5.196692 1.477899 -1.414546
v 5.196692 1.104952 -1.272875
v 5.196692 1.059669 -1.340708
v 5.196692 1.236416 -1.384707
v 5.196692 1.224511 -1.505179
v 5.196692 1.393960 -1.560474
v 5.196692 1.362888 -1.428525
v 5.196692 1.061144 -0.638605
v 5.196692 1.080110 -0.517353
v 5.196692 0.811489 -0.511694
v 5.196692 0.824412 -0.640771
v 5.196692 0.976177 -1.101178
v 5.196692 0.946875 -1.120085
v 5.196692 -0.102871 -0.553907
v 5.196692 -0.138455 -0.634335
v 5.196692 0.135751 -0.616226
v 5.196692 0.120073 -0.731672
v 5.196692 0.260988 -0.747648
v 5.196692 0.260781 -0.624427
v 5.196692 0.009130 -0.589908
v 5.196692 -0.026232 -0.689032
v 5.196692 -0.352883 -0.383172
v 5.196692 -0.395169 -0.418742
v 5.196692 -0.593787 0.033507
v 5.196692 -0.626104 0.027544
v 5.196692 -0.464056 0.710988
v 5.196692 -0.539644 0.803444
v 5.196692 -0.274596 0.787167
v 5.196692 -0.273799 0.924734
v 5.196692 0.167503 0.640672
v 5.196692 0.240270 0.704305
v 5.196692 0.410030 0.257933
v 5.196692 0.483626 0.260768
v 5.196692 -0.248397 -0.468984
v 5.196692 -0.276968 -0.534361
v 5.196692 -0.502370 -0.184750
v 5.196692 -0.537644 -0.205270
v 5.196692 -0.473497 -0.311225
v 5.196692 -0.437515 -0.287224
v 5.196692 -0.549977 -0.075236
v 5.196692 -0.586819 -0.090495
v 5.196692 -0.619782 0.398615
v 5.196692 -0.675120 0.402602
v 5.196692 -0.561192 0.589691
v 5.196692 -0.629414 0.647040
v 5.196692 -0.668372 0.247678
v 5.196692 -0.626571 0.248419
v 5.196692 -0.370206 0.751233
v 5.196692 -0.414494 0.890711
v 5.196692 -0.040363 0.759350
v 5.196692 0.007090 0.870304
v 5.196692 -0.662878 0.534226
v 5.196692 -0.595530 0.501768
v 5.196692 -0.147990 0.916309
v 5.196692 -0.162374 0.788092
v 5.196692 -0.654734 0.129907
v 5.196692 -0.621334 0.137957
v 5.196692 0.312906 0.474054
v 5.196692 0.391379 0.497646
v 5.196692 0.056668 0.721184
v 5.196692 0.136754 0.796511
v 5.196692 0.326475 0.604743
v 5.196692 0.237584 0.570417
v 5.196692 0.364158 0.375992
v 5.196692 0.442615 0.394644
v 5.196692 0.314204 -0.265634
v 5.196692 0.365113 -0.309594
v 5.196692 0.451475 -0.024641
v 5.196692 0.500189 -0.040476
v 5.196692 0.508373 0.110096
v 5.196692 0.451895 0.113669
v 5.196692 0.454545 -0.180801
v 5.196692 0.373749 -0.219079
v 5.196692 0.412598 -0.251032
v 5.196692 0.482173 -0.112933
v 5.196692 0.437341 -0.090967
v 5.196692 0.459537 0.044237
v 5.196692 0.509601 0.035047
v 5.196692 -0.007466 -0.168649
v 5.196692 -0.075032 -0.270259
v 5.196692 0.116501 -0.262374
v 5.196692 0.102949 -0.386819
v 5.196692 0.248240 -0.382068
v 5.196692 0.218071 -0.286304
v 5.196692 0.306914 -0.351151
v 5.196692 0.267898 -0.280281
v 5.196692 0.172339 -0.278661
v 5.196692 0.182546 -0.389151
v 5.196692 0.051698 -0.226142
v 5.196692 0.011238 -0.348416
v 5.196692 -0.150970 0.039760
v 5.196692 -0.225613 0.026580
v 5.196692 -0.094942 -0.070477
v 5.196692 -0.174146 -0.125567
v 5.196692 -0.209084 0.421938
v 5.196692 -0.232481 0.433934
v 5.196692 -0.206609 0.236249
v 5.196692 -0.252830 0.239702
v 5.196692 -0.248349 0.130382
v 5.196692 -0.188916 0.140062
v 5.196692 -0.214176 0.330380
v 5.196692 -0.246453 0.337589
vn -0.0000 0.1649 0.9863
vn -0.0000 -0.9728 -0.2317
vn -0.0000 -0.0936 0.9956
vn -0.0000 0.9735 -0.2289
vn -0.0000 -0.3016 0.9534
vn -0.0000 -0.1126 -0.9936
vn -0.0000 -0.9587 0.2844
vn -0.0000 0.4662 -0.8847
vn -0.0000 0.1266 -0.9920
vn -0.0000 -0.2798 -0.9601
vn -0.0000 0.4946 0.8691
vn -0.0000 0.1327 0.9912
vn -0.0000 -0.1200 0.9928
vn -0.0000 0.0655 0.9979
vn -0.0000 -0.2293 -0.9734
vn -0.0000 0.1072 -0.9942
vn -0.0000 0.0315 -0.9995
vn -0.0000 0.9130 0.4079
vn -0.0000 0.3060 0.9520
vn -0.0000 -0.2350 0.9720
vn -0.0000 -0.7543 -0.6566
vn -0.0000 -0.3862 -0.9224
vn -0.0000 0.3941 -0.9191
vn -0.0000 0.2800 0.9600
vn -0.0000 -0.3637 -0.9315
vn -0.0000 0.5811 -0.8138
vn -0.0000 -0.9649 -0.2625
vn -0.0000 0.9989 0.0474
vn -0.0000 0.6996 0.7145
vn -0.0000 0.6969 0.7172
vn -0.0000 0.8495 0.5276
vn -0.0000 -0.9991 -0.0435
vn -0.0000 0.8370 0.5473
vn -0.0000 0.2390 -0.9710
vn -0.0000 -0.8673 0.4978
vn -0.0000 -0.5885 -0.8085
vn -0.0000 0.9923 -0.1237
vn -0.0000 -0.0745 0.9972
vn -0.0000 0.9315 -0.3638
vn -0.0000 0.5278 0.8494
vn -0.0000 -0.9940 -0.1094
vn -0.0000 -0.8743 -0.4854
vn -0.0000 -0.4400 -0.8980
vn -0.0000 0.2391 0.9710
vn -0.0000 -0.9957 0.0926
vn -0.0000 -0.9780 0.2084
vn -0.0000 -0.1181 -0.9930
vn -0.0000 0.9990 -0.0452
vn -0.0000 -0.2670 -0.9637
vn -0.0000 -0.9262 0.3770
vn 1.0000 -0.0000 -0.0000
vn -0.0000 0.6352 0.7723
vn -0.0000 0.0118 0.9999
vn -0.0000 -0.9488 -0.3158
vn -0.0000 -0.2331 0.9724
vn -0.0000 0.7767 -0.6298
vn -0.0000 -0.1602 -0.9871
vn -0.0000 0.9171 0.3987
vn -0.0000 -0.6110 -0.7916
vn -0.0000 0.7499 0.6615
vn -0.0000 -0.8585 0.5128
vn -0.0000 0.3809 0.9246
vn -0.0000 -0.8554 -0.5179
vn -0.0000 -0.8553 -0.5182
vn -0.0000 -0.9192 -0.3938
vn -0.0000 0.9812 0.1931
vn -0.0000 0.2844 0.9587
vn -0.0000 0.2035 0.9791
vn -0.0000 -0.0293 -0.9996
vn -0.0000 0.0082 -1.0000
vn -0.0000 -0.4381 -0.8989
vn -0.0000 -0.9223 0.3864
vn -0.0000 0.4880 0.8728
vn -0.0000 0.9999 0.0112
vn -0.0000 -0.9934 -0.1150
vn -0.0000 -0.6714 -0.7411
vn -0.0000 0.9669 0.2550
vn -0.0000 0.6347 0.7728
vn -0.0000 0.5822 0.8130
vn -0.0000 -0.5852 -0.8109
vn -0.0000 0.8690 -0.4948
vn -0.0000 -0.7879 -0.6158
vn -0.0000 0.8915 0.4531
vn -0.0000 0.8953 0.4454
vn -0.0000 0.9276 0.3737
vn -0.0000 -0.8250 -0.5651
vn -0.0000 0.7479 0.6638
vn -0.0000 -0.8083 -0.5888
vn -0.0000 0.7466 0.6653
vn -0.0000 -0.7773 -0.6292
vn -0.0000 -0.3660 -0.9306
vn -0.0000 -0.9473 -0.3204
vn -0.0000 -0.2465 0.9691
vn -0.0000 0.6651 0.7467
vn -0.0000 0.7806 -0.6251
vn -0.0000 0.1157 -0.9933
vn -0.0000 -0.9630 -0.2694
vn -0.0000 0.4562 0.8899
vn -0.0000 0.8552 0.5183
vn -0.0000 0.9985 -0.0555
vn -0.0000 0.2656 0.9641
vn -0.0000 -0.7080 -0.7062
vn -0.0000 0.3518 -0.9361
vn -0.0000 -0.9768 -0.2140
vn -0.0000 -0.4128 -0.9108
vn -0.0000 -0.5720 0.8203
vn -0.0000 0.9835 0.1809
vn -0.0000 -0.8863 -0.4632
vn -0.0000 -0.9979 0.0650
vn -0.0000 -0.9661 0.2582
vn -0.0000 0.9561 0.2929
vn -0.0000 -0.5877 -0.8091
vn -0.0000 0.9123 0.4095
vn -0.0000 0.0668 0.9978
vn -0.0000 -0.9992 -0.0410
vn -0.0000 -0.9249 -0.3803
vn -0.0000 0.9353 0.3538
vn -0.0000 -0.9995 0.0314
vn -0.0000 -0.6159 0.7878
vn -0.0000 -0.9321 -0.3622
vn -0.0000 0.9819 -0.1894
vn -0.0000 0.9868 0.1621
vn -0.0000 0.7560 0.6546
vn -0.0000 0.9968 0.0801
vn -0.0000 -0.9932 0.1163
vn -0.0000 0.5040 0.8637
vn -0.0000 -0.9896 0.1435
vn -0.0000 0.6377 -0.7702
vn -0.0000 0.9705 -0.2413
vn -0.0000 -0.6993 -0.7149
vn -0.0000 -0.6397 0.7686
vn -0.0000 0.9999 0.0164
vn -0.0000 0.8450 0.5348
vn -0.0000 0.6981 0.7160
vn -0.0000 -0.9604 -0.2787
vt 0.000000 0.000000
vt 1.000000 0.000000
vt 1.000000 1.000000
vt 0.750000 0.000000
vt 0.750000 1.000000
vt 0.000000 1.000000
vt 0.250000 0.000000
vt 0.500000 0.000000
vt 0.500000 1.000000
vt 0.250000 1.000000
vt 1.000000 1.000000
vt 1.000000 0.000000
vt 1.000000 0.000000
vt 1.000000 0.000000
vt 1.000000 1.000000
s 0
f 417/53/204 420/53/204 553/53/204 550/53/204
f 307/53/205 317/53/205 451/53/205 441/53/205
f 303/53/206 351/53/206 485/53/206 437/53/206
f 374/53/207 385/53/207 519/53/207 508/53/207
f 398/53/208 419/53/208 552/53/208 532/53/208
f 349/53/209 350/53/209 484/53/209 483/53/209
f 377/53/210 384/53/210 518/53/210 511/53/210
f 416/53/211 418/53/211 551/53/211 549/53/211
f 343/53/212 315/53/212 449/53/212 477/53/212
f 353/53/213 349/53/213 483/53/213 487/53/213
f 393/53/214 383/53/214 517/53/214 527/53/214
f 341/53/215 314/53/215 448/53/215 475/53/215
f 419/53/216 417/53/216 550/53/216 552/53/216
f 351/53/217 348/53/217 482/53/217 485/53/217
f 387/53/218 382/53/218 516/53/218 521/53/218
f 421/53/219 416/53/219 549/53/219 554/53/219
f 350/53/220 305/53/220 439/53/220 484/53/220
f 306/53/221 313/53/221 447/53/221 440/53/221
f 352/53/222 346/53/222 480/53/222 486/53/222
f 361/53/223 381/53/223 515/53/223 495/53/223
f 308/53/224 312/53/224 446/53/224 442/53/224
f 423/53/225 415/53/225 548/53/225 556/53/225
f 358/53/226 380/53/226 514/53/226 492/53/226
f 420/53/227 414/53/227 547/53/227 553/53/227
f 304/53/228 311/53/228 445/53/228 438/53/228
f 418/53/229 399/53/229 533/53/229 551/53/229
f 328/53/230 345/53/230 479/53/230 462/53/230
f 389/53/231 379/53/231 513/53/231 523/53/231
f 309/53/232 310/53/232 444/53/232 443/53/232
f 422/53/233 412/53/233 545/53/233 555/53/233
f 323/53/234 344/53/234 478/53/234 457/53/234
f 375/53/235 378/53/235 512/53/235 509/53/235
f 313/53/236 309/53/236 443/53/236 447/53/236
f 305/53/237 343/53/237 477/53/237 439/53/237
f 359/53/238 377/53/238 511/53/238 493/53/238
f 311/53/239 308/53/239 442/53/239 445/53/239
f 401/53/240 411/53/240 544/53/240 535/53/240
f 314/53/241 342/53/241 476/53/241 448/53/241
f 385/53/242 376/53/242 510/53/242 519/53/242
f 310/53/243 302/53/243 436/53/243 444/53/243
f 403/53/244 410/53/244 543/53/244 537/53/244
f 312/53/245 307/53/245 441/53/245 446/53/245
f 409/54/246 408/55/246 541/55/246 542/54/246
f 302/53/247 341/53/247 475/53/247 436/53/247
f 384/53/248 375/53/248 509/53/248 518/53/248
f 400/53/249 409/53/249 542/53/249 534/53/249
f 315/53/250 340/53/250 474/53/250 449/53/250
f 379/53/251 374/53/251 508/53/251 513/53/251
f 340/53/252 304/53/252 438/53/252 474/53/252
f 408/55/253 405/55/253 538/55/253 541/55/253
f 408/55/254 409/54/254 404/54/254 405/55/254
f 405/55/254 404/54/254 406/54/254 407/55/254
f 407/55/255 406/54/255 539/54/255 540/55/255
f 324/53/256 339/53/256 473/53/256 458/53/256
f 357/53/257 373/53/257 507/53/257 491/53/257
f 342/53/258 303/53/258 437/53/258 476/53/258
f 399/53/259 407/53/259 540/53/259 533/53/259
f 327/53/260 338/53/260 472/53/260 461/53/260
f 368/53/261 372/53/261 506/53/261 502/53/261
f 320/53/262 337/53/262 471/53/262 454/53/262
f 354/53/263 371/53/263 505/53/263 488/53/263
f 405/55/264 407/55/264 540/55/264 538/55/264
f 326/53/265 336/53/265 470/53/265 460/53/265
f 369/53/266 370/53/266 504/53/266 503/53/266
f 322/53/267 335/53/267 469/53/267 456/53/267
f 373/53/268 369/53/268 503/53/268 507/53/268
f 476/56/254 437/54/254 439/55/254 477/57/254
f 447/53/254 446/58/254 441/58/254 440/53/254
f 444/53/254 445/58/254 442/58/254 443/53/254
f 436/53/254 438/58/254 445/58/254 444/53/254
f 443/53/254 442/58/254 446/58/254 447/53/254
f 475/59/254 448/60/254 449/61/254 474/62/254
f 440/53/254 441/58/254 451/58/254 450/53/254
f 465/53/254 464/58/254 453/58/254 452/53/254
f 471/53/254 470/58/254 455/58/254 454/53/254
f 469/53/254 468/58/254 457/58/254 456/53/254
f 466/53/254 467/58/254 458/58/254 459/53/254
f 472/53/254 473/58/254 460/58/254 461/53/254
f 479/53/254 478/58/254 463/58/254 462/53/254
f 450/53/254 451/58/254 464/58/254 465/53/254
f 452/53/254 453/58/254 467/58/254 466/53/254
f 454/53/254 455/58/254 468/58/254 469/53/254
f 461/53/254 460/58/254 470/58/254 471/53/254
f 459/53/254 458/58/254 473/58/254 472/53/254
f 436/53/254 475/59/254 474/62/254 438/58/254
f 448/60/254 476/56/254 477/57/254 449/61/254
f 456/53/254 457/58/254 478/58/254 479/53/254
f 487/55/254 486/54/254 480/54/254 481/55/254
f 484/55/254 485/54/254 482/54/254 483/63/254
f 439/55/254 437/54/254 485/54/254 484/55/254
f 483/63/254 482/54/254 486/54/254 487/55/254
f 501/63/254 500/54/254 488/54/254 489/55/254
f 507/55/254 506/54/254 490/54/254 491/55/254
f 511/55/254 510/54/254 492/54/254 493/55/254
f 515/55/254 514/54/254 494/54/254 495/55/254
f 527/55/254 526/64/254 496/54/254 497/55/254
f 531/55/254 530/54/254 498/54/254 499/55/254
f 481/55/254 480/54/254 500/54/254 501/63/254
f 504/55/254 505/54/254 502/54/254 503/55/254
f 489/55/254 488/54/254 505/54/254 504/55/254
f 503/55/254 502/54/254 506/54/254 507/55/254
f 512/55/254 513/54/254 508/54/254 509/55/254
f 518/55/254 519/54/254 510/54/254 511/55/254
f 522/55/254 523/54/254 513/54/254 512/55/254
f 493/55/254 492/54/254 514/54/254 515/55/254
f 520/55/254 521/54/254 516/54/254 517/63/254
f 509/55/254 508/54/254 519/54/254 518/55/254
f 495/55/254 494/54/254 521/54/254 520/55/254
f 491/55/254 490/54/254 523/54/254 522/55/254
f 528/55/254 529/65/254 524/54/254 525/55/254
f 517/63/254 516/54/254 526/64/254 527/55/254
f 497/55/254 496/54/254 529/65/254 528/55/254
f 525/55/254 524/54/254 530/54/254 531/55/254
f 540/55/254 539/54/254 532/54/254 533/55/254
f 544/55/254 543/54/254 534/65/254 535/55/254
f 499/55/254 498/54/254 537/54/254 536/55/254
f 535/55/254 534/65/254 542/54/254 541/55/254
f 536/55/254 537/54/254 543/54/254 544/55/254
f 556/55/254 555/54/254 545/54/254 546/55/254
f 554/55/254 553/66/254 547/65/254 548/55/254
f 551/55/254 552/65/254 550/54/254 549/55/254
f 533/55/254 532/54/254 552/65/254 551/55/254
f 549/55/254 550/54/254 553/66/254 554/55/254
f 548/55/254 547/65/254 555/54/254 556/55/254
f 560/67/254 559/54/254 557/54/254 558/55/254
f 546/55/254 545/54/254 559/54/254 560/67/254
f 568/63/254 567/54/254 561/54/254 562/55/254
f 565/55/254 566/54/254 563/54/254 564/55/254
f 558/55/254 557/54/254 566/54/254 565/55/254
f 564/55/254 563/54/254 567/54/254 568/63/254
f 316/53/269 306/53/269 440/53/269 450/53/269
f 383/53/270 386/53/270 520/53/270 517/53/270
f 348/53/271 352/53/271 486/53/271 482/53/271
f 415/53/272 421/53/272 554/53/272 548/53/272
f 360/53/273 387/53/273 521/53/273 494/53/273
f 347/53/274 353/53/274 487/53/274 481/53/274
f 330/53/275 319/53/275 453/53/275 464/53/275
f 414/53/276 422/53/276 555/53/276 547/53/276
f 331/53/277 316/53/277 450/53/277 465/53/277
f 378/53/278 388/53/278 522/53/278 512/53/278
f 413/53/279 423/53/279 556/53/279 546/53/279
f 356/53/280 389/53/280 523/53/280 490/53/280
f 366/53/281 354/53/281 488/53/281 500/53/281
f 336/53/282 321/53/282 455/53/282 470/53/282
f 367/53/283 347/53/283 481/53/283 501/53/283
f 332/53/284 318/53/284 452/53/284 466/53/284
f 395/53/285 390/53/285 524/53/285 529/53/285
f 426/53/286 424/53/286 557/53/286 559/53/286
f 397/53/287 391/53/287 525/53/287 531/53/287
f 372/53/288 356/53/288 490/53/288 506/53/288
f 427/53/289 413/53/289 546/53/289 560/53/289
f 334/53/290 323/53/290 457/53/290 468/53/290
f 370/53/291 355/53/291 489/53/291 504/53/291
f 412/53/292 426/53/292 559/53/292 545/53/292
f 335/53/293 320/53/293 454/53/293 469/53/293
f 382/53/294 392/53/294 526/53/294 516/53/294
f 425/53/295 427/53/295 560/53/295 558/53/295
f 333/53/296 324/53/296 458/53/296 467/53/296
f 363/53/297 393/53/297 527/53/297 497/53/297
f 376/53/298 358/53/298 492/53/298 510/53/298
f 338/53/299 325/53/299 459/53/299 472/53/299
f 388/53/300 357/53/300 491/53/300 522/53/300
f 428/53/301 429/53/301 562/53/301 561/53/301
f 391/53/302 394/53/302 528/53/302 525/53/302
f 434/53/303 428/53/303 561/53/303 567/53/303
f 339/53/304 326/53/304 460/53/304 473/53/304
f 362/53/305 395/53/305 529/53/305 496/53/305
f 380/53/306 360/53/306 494/53/306 514/53/306
f 432/53/307 425/53/307 558/53/307 565/53/307
f 337/53/308 327/53/308 461/53/308 471/53/308
f 381/53/309 359/53/309 493/53/309 515/53/309
f 433/53/310 430/53/310 563/53/310 566/53/310
f 390/53/311 396/53/311 530/53/311 524/53/311
f 435/53/312 431/53/312 564/53/312 568/53/312
f 329/53/313 328/53/313 462/53/313 463/53/313
f 365/53/314 397/53/314 531/53/314 499/53/314
f 392/53/315 362/53/315 496/53/315 526/53/315
f 344/53/316 329/53/316 463/53/316 478/53/316
f 386/53/317 361/53/317 495/53/317 520/53/317
f 431/53/318 432/53/318 565/53/318 564/53/318
f 345/53/319 322/53/319 456/53/319 479/53/319
f 424/53/320 433/53/320 566/53/320 557/53/320
f 317/53/321 330/53/321 464/53/321 451/53/321
f 406/53/322 398/53/322 532/53/322 539/53/322
f 396/53/323 364/53/323 498/53/323 530/53/323
f 318/53/324 331/53/324 465/53/324 452/53/324
f 402/53/325 365/53/325 499/53/325 536/53/325
f 394/53/326 363/53/326 497/53/326 528/53/326
f 430/53/327 434/53/327 567/53/327 563/53/327
f 410/53/328 400/53/328 534/53/328 543/53/328
f 346/53/329 366/53/329 500/53/329 480/53/329
f 429/53/330 435/53/330 568/53/330 562/53/330
f 325/53/331 332/53/331 466/53/331 459/53/331
f 408/53/332 401/53/332 535/53/332 541/53/332
f 355/53/333 367/53/333 501/53/333 489/53/333
f 319/53/334 333/53/334 467/53/334 453/53/334
f 411/53/335 402/53/335 536/53/335 544/53/335
f 371/53/336 368/53/336 502/53/336 505/53/336
f 321/53/337 334/53/337 468/53/337 455/53/337
f 364/53/338 403/53/338 537/53/338 498/53/338
